<svg width="40" height="40" viewBox="0 0 40 40" fill="none" xmlns="http://www.w3.org/2000/svg">
<path d="M18.8574 0H20.2044V17.5108H18.8574V0Z" fill="#B2B2B2"/>
<path d="M6.73535 0H8.08233V18.1843H6.73535V0Z" fill="#7FCE74"/>
<path d="M8.75549 8.08196V4.04102H7.40851H6.06152V8.08196" fill="#757575"/>
<path d="M7.40841 21.5517C11.5 21.5517 14.8168 18.2348 14.8168 14.1433C14.8168 10.0517 11.5 6.73486 7.40841 6.73486C3.31686 6.73486 0 10.0517 0 14.1433C0 18.2348 3.31686 21.5517 7.40841 21.5517Z" fill="#F2F2F2"/>
<path d="M20.8785 20.2047V15.4902H19.5316H18.1846V20.2047" fill="#9A9A9B"/>
<path d="M11.4023 22.9592L27.6133 22.8986C26.6684 21.6398 25.4423 20.6191 24.033 19.9181C22.6237 19.217 21.07 18.855 19.496 18.8609C17.9219 18.8668 16.371 19.2404 14.967 19.952C13.5629 20.6635 12.3446 21.6933 11.4091 22.9592H11.4023Z" fill="#E54C4C"/>
<path d="M29.4314 26.9395C29.7008 28.273 29.7008 29.6469 29.4314 30.9804H9.63076C9.36136 29.6469 9.36136 28.273 9.63076 26.9395H29.4314Z" fill="#90DB86"/>
<path d="M11.4492 35.0215H27.613C26.672 36.2762 25.4518 37.2945 24.049 37.9959C22.6463 38.6973 21.0995 39.0624 19.5311 39.0624C17.9628 39.0624 16.416 38.6973 15.0132 37.9959C13.6104 37.2945 12.3902 36.2762 11.4492 35.0215Z" fill="#A87DDB"/>
<path d="M11.4089 22.9595C10.5323 24.1403 9.92533 25.499 9.63086 26.9399H29.4315C29.1343 25.4741 28.513 24.0935 27.6131 22.8989L11.4021 22.9595" fill="#F7C963"/>
<path d="M29.4315 30.9805C29.1343 32.4462 28.513 33.8269 27.6131 35.0214H11.4493C10.5494 33.8269 9.9281 32.4462 9.63086 30.9805H29.4315Z" fill="#3AA39E"/>
<path d="M11.2946 20.4538C11.0536 19.609 10.544 18.8657 9.84279 18.3365C9.14157 17.8073 8.287 17.521 7.40851 17.521C6.53001 17.521 5.67544 17.8073 4.97423 18.3365C4.27302 18.8657 3.76336 19.609 3.52246 20.4538C4.69083 21.1737 6.03618 21.5548 7.40851 21.5548C8.78083 21.5548 10.1262 21.1737 11.2946 20.4538Z" fill="#5981C1"/>
<path d="M1.4144 18.494C0.775742 17.622 0.33868 16.619 0.134766 15.5576C1.01939 14.4851 2.13023 13.6215 3.38772 13.0287C4.64521 12.4358 6.01824 12.1284 7.40847 12.1284C8.7987 12.1284 10.1717 12.4358 11.4292 13.0287C12.6867 13.6215 13.7976 14.4851 14.6822 15.5576C14.4783 16.619 14.0412 17.622 13.4025 18.494C12.8374 17.3908 11.9787 16.465 10.9211 15.8185C9.86351 15.172 8.64801 14.8299 7.40847 14.8299C6.16893 14.8299 4.95344 15.172 3.89584 15.8185C2.83825 16.465 1.97958 17.3908 1.4144 18.494Z" fill="#5981C1"/>
<path d="M14.3856 11.6446C12.3469 10.2034 9.91163 9.42956 7.41497 9.42956C4.91832 9.42956 2.48303 10.2034 0.444336 11.6446C0.960747 10.2098 1.90731 8.96938 3.15485 8.09252C4.40238 7.21566 5.8901 6.74512 7.41497 6.74512C8.93984 6.74512 10.4276 7.21566 11.6751 8.09252C12.9226 8.96938 13.8692 10.2098 14.3856 11.6446Z" fill="#5981C1"/>
<path d="M30.9805 0H32.3275V18.1843H30.9805V0Z" fill="#7FCE74"/>
<path d="M33.0006 8.08196V4.04102H31.6536H30.3066V8.08196" fill="#757575"/>
<path d="M31.6545 21.5517C35.746 21.5517 39.0629 18.2348 39.0629 14.1433C39.0629 10.0517 35.746 6.73486 31.6545 6.73486C27.5629 6.73486 24.2461 10.0517 24.2461 14.1433C24.2461 18.2348 27.5629 21.5517 31.6545 21.5517Z" fill="#F2F2F2"/>
<path d="M35.5397 20.4538C35.2988 19.609 34.7891 18.8657 34.0879 18.3365C33.3867 17.8073 32.5321 17.521 31.6536 17.521C30.7751 17.521 29.9206 17.8073 29.2193 18.3365C28.5181 18.8657 28.0085 19.609 27.7676 20.4538C28.9359 21.1737 30.2813 21.5548 31.6536 21.5548C33.0259 21.5548 34.3713 21.1737 35.5397 20.4538Z" fill="#5981C1"/>
<path d="M25.6595 18.494C25.0209 17.622 24.5838 16.619 24.3799 15.5576C25.2645 14.4851 26.3753 13.6215 27.6328 13.0287C28.8903 12.4358 30.2634 12.1284 31.6536 12.1284C33.0438 12.1284 34.4168 12.4358 35.6743 13.0287C36.9318 13.6215 38.0427 14.4851 38.9273 15.5576C38.7234 16.619 38.2863 17.622 37.6477 18.494C37.0825 17.3908 36.2238 16.465 35.1662 15.8185C34.1086 15.172 32.8931 14.8299 31.6536 14.8299C30.4141 14.8299 29.1986 15.172 28.141 15.8185C27.0834 16.465 26.2247 17.3908 25.6595 18.494Z" fill="#5981C1"/>
<path d="M38.6317 11.6446C36.593 10.2034 34.1577 9.42956 31.6611 9.42956C29.1644 9.42956 26.7291 10.2034 24.6904 11.6446C25.2068 10.2098 26.1534 8.96938 27.4009 8.09252C28.6485 7.21566 30.1362 6.74512 31.6611 6.74512C33.1859 6.74512 34.6737 7.21566 35.9212 8.09252C37.1687 8.96938 38.1153 10.2098 38.6317 11.6446Z" fill="#5981C1"/>
<path d="M7.4082 34.3481H8.75519V35.6951H7.4082V34.3481Z" fill="#B2B2B2"/>
<path d="M7.4082 37.042H8.75519V38.389H7.4082V37.042Z" fill="#B2B2B2"/>
<path d="M8.75586 35.6948H10.1028V37.0418H8.75586V35.6948Z" fill="#B2B2B2"/>
<path d="M6.06152 35.6948H7.40851V37.0418H6.06152V35.6948Z" fill="#B2B2B2"/>
<path d="M30.3076 34.3481H31.6546V35.6951H30.3076V34.3481Z" fill="#B2B2B2"/>
<path d="M30.3076 37.042H31.6546V38.389H30.3076V37.042Z" fill="#B2B2B2"/>
<path d="M31.6543 35.6948H33.0013V37.0418H31.6543V35.6948Z" fill="#B2B2B2"/>
<path d="M28.96 35.6948H30.3069V37.0418H28.96V35.6948Z" fill="#B2B2B2"/>
<path d="M6.06152 30.9805H7.40851V32.3275H6.06152V30.9805Z" fill="#F28B44"/>
<path d="M3.36719 28.2866H4.71417V29.6336H3.36719V28.2866Z" fill="#3AA39E"/>
<path d="M6.06152 25.5928H7.40851V26.9398H6.06152V25.5928Z" fill="#F28B44"/>
<path d="M31.6543 25.5928H33.0013V26.9398H31.6543V25.5928Z" fill="#F28B44"/>
<path d="M34.3477 28.2866H35.6946V29.6336H34.3477V28.2866Z" fill="#3AA39E"/>
<path d="M31.6543 30.9805H33.0013V32.3275H31.6543V30.9805Z" fill="#F28B44"/>
</svg>
