<svg width="31" height="41" viewBox="0 0 31 41" fill="none" xmlns="http://www.w3.org/2000/svg">
<path d="M26.0917 7.24664C23.8188 3.11227 19.6982 0.00164127 15.1819 6.47995e-07C10.6655 -0.00163998 6.54495 3.11227 4.27203 7.24664C3.09504 9.38864 3.31554 13.6595 4.05874 17.0664H26.3053C27.0482 13.6598 27.2687 9.38897 26.0917 7.24664Z" fill="#9E5969"/>
<path d="M24.356 16.5107L23.5127 22.4737C25.0126 22.7188 26.7306 20.9915 26.9793 19.492C27.2851 17.6496 26.2351 16.3555 24.356 16.5107Z" fill="#FFA39C"/>
<path d="M3.38357 19.492C3.63229 20.9915 5.35035 22.7188 6.85021 22.4737L6.00693 16.5107C4.12776 16.3555 3.07776 17.6496 3.38357 19.492Z" fill="#FFA39C"/>
<path d="M23.8444 19.9898C23.7614 19.99 23.6797 19.9693 23.6069 19.9295C23.534 19.8898 23.4724 19.8322 23.4278 19.7622C23.3832 19.6923 23.357 19.6122 23.3516 19.5293C23.3463 19.4465 23.3619 19.3637 23.3972 19.2886C23.5939 18.9612 23.8781 18.6952 24.2179 18.5207C24.5576 18.3461 24.9393 18.2699 25.32 18.3006C25.4494 18.3138 25.5682 18.3778 25.6506 18.4784C25.733 18.579 25.7723 18.7082 25.7597 18.8376C25.7472 18.9671 25.6839 19.0863 25.5838 19.1693C25.4836 19.2522 25.3547 19.2922 25.2252 19.2804C25.0461 19.2697 24.8672 19.303 24.704 19.3774C24.5407 19.4517 24.3982 19.5648 24.2887 19.7069C24.249 19.7913 24.1862 19.8627 24.1076 19.9128C24.0289 19.9628 23.9376 19.9895 23.8444 19.9898Z" fill="#FF6C73"/>
<path d="M6.52077 19.99C6.42712 19.9901 6.33539 19.9635 6.25635 19.9133C6.1773 19.8631 6.11423 19.7913 6.07452 19.7065C5.96475 19.5648 5.82214 19.4519 5.65898 19.3775C5.49583 19.3032 5.31704 19.2697 5.13805 19.28C5.07352 19.2866 5.00832 19.2804 4.9462 19.2617C4.88408 19.243 4.82626 19.2122 4.77607 19.1711C4.72589 19.1301 4.68431 19.0794 4.65375 19.0222C4.62319 18.965 4.60424 18.9023 4.59799 18.8377C4.59174 18.7732 4.59832 18.708 4.61734 18.646C4.63636 18.584 4.66746 18.5263 4.70883 18.4764C4.75021 18.4264 4.80105 18.3851 4.85844 18.3549C4.91583 18.3247 4.97862 18.3061 5.04322 18.3002C5.42396 18.2693 5.80575 18.3454 6.14551 18.52C6.48527 18.6946 6.76947 18.9606 6.96604 19.2882C7.00106 19.3631 7.01663 19.4457 7.01129 19.5283C7.00595 19.6108 6.97989 19.6907 6.93551 19.7605C6.89113 19.8304 6.82986 19.8879 6.75737 19.9278C6.68488 19.9676 6.60351 19.9886 6.52077 19.9887V19.99Z" fill="#FF6C73"/>
<path d="M29.7044 40.3089H0.657128C0.54425 40.3086 0.433341 40.2793 0.335038 40.2238C0.236734 40.1683 0.154332 40.0885 0.0957345 39.992C0.0371366 39.8956 0.00430791 39.7856 0.000395879 39.6728C-0.00351615 39.56 0.0216197 39.4481 0.0733936 39.3478C0.533945 38.4328 1.15383 37.6071 1.904 36.9095C3.49869 35.4296 7.54447 34.6946 9.61494 33.6446C10.1597 33.3825 10.6373 32.9994 11.0115 32.5245C11.3857 32.0497 11.6465 31.4957 11.774 30.9048C11.8068 30.7768 11.8331 30.6521 11.8528 30.5275C11.9449 29.8286 12.0018 29.1255 12.0234 28.4209H18.3365C18.3592 29.1245 18.4172 29.8264 18.5104 30.5242C18.5301 30.6489 18.5563 30.7768 18.5892 30.9048C18.7167 31.4957 18.9775 32.0497 19.3517 32.5245C19.7258 32.9994 20.2035 33.3825 20.7482 33.6446C22.8154 34.6946 26.8612 35.4296 28.4592 36.9095C29.2075 37.608 29.8264 38.4332 30.2875 39.3471C30.3394 39.4474 30.3646 39.5593 30.3608 39.6722C30.357 39.785 30.3243 39.895 30.2657 39.9916C30.2072 40.0881 30.1248 40.168 30.0265 40.2236C29.9282 40.2791 29.8173 40.3085 29.7044 40.3089Z" fill="#FFA39C"/>
<path d="M18.5102 30.5242C17.623 31.0295 16.6636 31.3958 15.6654 31.6103C15.3467 31.6825 15.016 31.6825 14.6974 31.6103C13.6999 31.395 12.7407 31.03 11.8525 30.5275C11.9447 29.8286 12.0016 29.1255 12.0232 28.4209H18.3363C18.359 29.1245 18.417 29.8264 18.5102 30.5242Z" fill="#FF6C73"/>
<path d="M24.0353 20.7C23.5399 23.22 22.5096 25.2478 21.1741 26.5668C21.1577 26.5865 21.138 26.6029 21.1216 26.6194C19.8583 27.8433 18.2505 29.1656 15.6616 29.7365C15.343 29.8087 15.0122 29.8087 14.6936 29.7365C12.1047 29.1656 10.4969 27.8433 9.23362 26.6194C9.21721 26.6029 9.19752 26.5865 9.18112 26.5668C7.83908 25.2445 6.85143 23.2134 6.35924 20.6868C6.09521 19.3107 5.97534 17.9108 6.00158 16.5098C6.07377 10.679 8.61346 13.6518 10.4936 8.22138C12.064 3.667 16.9478 4.13294 19.4468 7.1845C19.6481 7.42628 19.9146 7.6051 20.2146 7.69966C23.4959 8.75294 24.1915 11.9259 24.349 16.5098C24.4052 17.9139 24.2999 19.3199 24.0353 20.7Z" fill="#FFB3A9"/>
<path d="M15.1813 21.4443C14.7222 21.4289 14.2845 21.2467 13.9501 20.9318C13.8694 20.8496 13.8224 20.7401 13.8186 20.625C13.8148 20.5098 13.8544 20.3975 13.9295 20.3101C14.0047 20.2228 14.1099 20.1669 14.2243 20.1535C14.3388 20.1401 14.454 20.1702 14.5473 20.2378C14.6259 20.329 14.7232 20.4021 14.8326 20.4522C14.942 20.5023 15.0609 20.5283 15.1813 20.5283C15.3016 20.5283 15.4205 20.5023 15.5299 20.4522C15.6393 20.4021 15.7366 20.329 15.8152 20.2378C15.9085 20.1702 16.0238 20.1401 16.1382 20.1535C16.2526 20.1669 16.3579 20.2228 16.433 20.3101C16.5082 20.3975 16.5477 20.5098 16.5439 20.625C16.5401 20.7401 16.4932 20.8496 16.4124 20.9318C16.078 21.2467 15.6403 21.4289 15.1813 21.4443Z" fill="#FF6C73"/>
<path d="M18.0388 23.5133C18.0205 23.4214 17.9666 23.3405 17.8888 23.2884C17.8109 23.2363 17.7156 23.2172 17.6237 23.2354H17.6181C17.2401 23.313 16.8515 23.3241 16.4697 23.2682C16.3745 23.2547 16.2813 23.2354 16.1711 23.2154C16.0146 23.1794 15.8529 23.1717 15.6937 23.1927C15.527 23.222 15.3686 23.2869 15.2294 23.383C15.2143 23.3914 15.1974 23.3959 15.1801 23.3959C15.1629 23.3959 15.146 23.3914 15.1309 23.383C14.9917 23.2869 14.8333 23.222 14.6666 23.1927C14.5074 23.1717 14.3457 23.1794 14.1892 23.2154C14.079 23.2367 13.9858 23.2547 13.8906 23.2682C13.5088 23.3241 13.1202 23.313 12.7422 23.2354H12.7363C12.6506 23.2184 12.5617 23.2337 12.4867 23.2784C12.4117 23.3231 12.356 23.394 12.3302 23.4774C12.3044 23.5608 12.3105 23.6508 12.3472 23.7301C12.3839 23.8093 12.4486 23.8721 12.5289 23.9064C12.9811 24.1011 13.4703 24.1948 13.9625 24.1807C14.0845 24.1771 14.2079 24.1666 14.3136 24.1584C14.4213 24.1519 14.5275 24.1858 14.6115 24.2535C14.7717 24.3509 14.9549 24.404 15.1424 24.4074H15.2159C15.4034 24.404 15.5866 24.3509 15.7468 24.2535C15.8309 24.1858 15.9373 24.1518 16.0451 24.1584C16.1504 24.1666 16.2748 24.1771 16.3962 24.1807C16.8882 24.1947 17.3774 24.1011 17.8294 23.9064C17.9041 23.8748 17.9656 23.8185 18.0037 23.7469C18.0418 23.6754 18.0542 23.5929 18.0388 23.5133Z" fill="#FF6C73"/>
<path d="M15.182 26.0739C14.9244 26.0724 14.6705 26.0124 14.4395 25.8983C14.3782 25.8723 14.3228 25.8341 14.2767 25.7861C14.2306 25.738 14.1947 25.6811 14.1712 25.6188C14.1478 25.5565 14.1372 25.4901 14.1401 25.4235C14.1431 25.357 14.1595 25.2918 14.1884 25.2318C14.2173 25.1718 14.258 25.1183 14.3082 25.0745C14.3584 25.0307 14.4169 24.9976 14.4802 24.9771C14.5436 24.9565 14.6104 24.9491 14.6768 24.9552C14.7431 24.9613 14.8075 24.9807 14.866 25.0124C14.963 25.0641 15.0712 25.0912 15.181 25.0912C15.2909 25.0912 15.3991 25.0641 15.496 25.0124C15.6125 24.963 15.7435 24.9603 15.8619 25.0049C15.9803 25.0495 16.077 25.1379 16.1319 25.2519C16.1867 25.3659 16.1956 25.4967 16.1567 25.617C16.1177 25.7374 16.0339 25.8381 15.9226 25.8983C15.6922 26.0121 15.439 26.0721 15.182 26.0739Z" fill="#FF6C73"/>
<path d="M17.8305 13.4304C18.2761 13.233 18.7517 13.112 19.2375 13.0724C19.7051 13.0208 20.1773 13.0258 20.6438 13.0872C21.1059 13.1483 21.5638 13.2377 22.0151 13.3546C22.4763 13.4645 22.9216 13.6328 23.3403 13.8553C23.3877 13.8821 23.4234 13.9255 23.4407 13.9771C23.458 14.0287 23.4555 14.0848 23.4338 14.1347C23.4122 14.1846 23.3728 14.2247 23.3233 14.2473C23.2738 14.2698 23.2177 14.2733 23.1658 14.2569L23.1523 14.2523C22.7425 14.1307 22.3213 14.0514 21.8953 14.0158C21.4627 13.9759 21.0282 13.9618 20.5939 13.9734C20.1615 13.9856 19.7333 13.9853 19.31 14.003C18.8967 14.0232 18.485 14.0695 18.0776 14.1418L18.0615 14.145C17.9707 14.1627 17.8766 14.1465 17.797 14.0994C17.7174 14.0523 17.6578 13.9777 17.6295 13.8897C17.6012 13.8016 17.6061 13.7062 17.6434 13.6216C17.6807 13.537 17.7477 13.4689 17.8318 13.4304H17.8305Z" fill="#9E5969"/>
<path d="M18.2941 17.1494C18.5627 17.2386 18.8473 17.2687 19.1285 17.2377C19.4394 17.2101 19.7463 17.1485 20.0437 17.054C20.1959 17.0057 20.3488 16.9555 20.4962 16.8948C20.572 16.8686 20.9637 16.6943 20.9637 16.6943C21.1771 16.5992 21.4095 16.5543 21.643 16.5631C21.7724 16.5683 21.8987 16.6047 22.011 16.6694C22.1233 16.734 22.2182 16.8249 22.2877 16.9342C22.3074 16.9698 22.3165 17.0103 22.3141 17.0509C22.3117 17.0915 22.2978 17.1305 22.2741 17.1636C22.2503 17.1966 22.2177 17.2222 22.18 17.2374C22.1423 17.2526 22.101 17.2568 22.061 17.2495L22.0124 17.2407C21.8994 17.22 21.7828 17.2322 21.6764 17.2758C21.5588 17.3186 21.4466 17.375 21.3421 17.4438C21.3093 17.4661 21.1206 17.5855 21.1206 17.5855C21.0346 17.6328 20.9486 17.684 20.8607 17.724C20.6843 17.8071 20.5026 17.8783 20.3167 17.9373C19.9365 18.0582 19.5389 18.1158 19.14 18.1076C18.7048 18.1081 18.2818 17.9634 17.9381 17.6964C17.8794 17.647 17.8399 17.5786 17.8264 17.503C17.8129 17.4275 17.8263 17.3496 17.8643 17.2829C17.9023 17.2163 17.9625 17.165 18.0344 17.1381C18.1062 17.1112 18.1853 17.1103 18.2577 17.1357L18.2941 17.1494Z" fill="#9E5969"/>
<path d="M12.4253 17.6968C12.0815 17.9637 11.6586 18.1083 11.2234 18.1079C10.8244 18.1157 10.4269 18.0577 10.0467 17.9363C9.86085 17.8774 9.6791 17.8061 9.5027 17.723C9.41476 17.6813 9.0535 17.4651 9.02134 17.4428C8.91681 17.374 8.80459 17.3176 8.68698 17.2748C8.58064 17.2312 8.46403 17.219 8.35098 17.2397L8.30242 17.2485C8.26241 17.2558 8.22117 17.2516 8.18347 17.2363C8.14578 17.2211 8.11316 17.1955 8.0894 17.1625C8.06564 17.1295 8.05172 17.0905 8.04923 17.0499C8.04675 17.0093 8.0558 16.9689 8.07536 16.9332C8.14497 16.8239 8.24 16.7331 8.35233 16.6684C8.46466 16.6038 8.59096 16.5673 8.72045 16.5621C8.95391 16.5533 9.18628 16.5983 9.39967 16.6934C9.39967 16.6934 9.79145 16.8676 9.86725 16.8938C10.0146 16.9549 10.1675 17.0047 10.3197 17.053C10.6171 17.1476 10.924 17.2092 11.2349 17.2367C11.5161 17.2677 11.8008 17.2376 12.0693 17.1485L12.106 17.135C12.1785 17.1096 12.2575 17.1103 12.3294 17.1372C12.4013 17.164 12.4616 17.2152 12.4997 17.2818C12.5378 17.3484 12.5513 17.4263 12.5379 17.5019C12.5245 17.5775 12.485 17.646 12.4263 17.6955L12.4253 17.6968Z" fill="#9E5969"/>
<path d="M12.313 14.1418C11.9053 14.0695 11.4935 14.0232 11.0799 14.003C10.6566 13.9853 10.2268 13.9856 9.79629 13.9734C9.36206 13.9618 8.92751 13.9759 8.49495 14.0158C8.06894 14.0514 7.64772 14.1307 7.2379 14.2523L7.22412 14.2566C7.17216 14.2734 7.11579 14.2703 7.066 14.2479C7.01621 14.2254 6.97656 14.1852 6.95477 14.1352C6.93298 14.0851 6.93062 14.0287 6.94814 13.9769C6.96567 13.9252 7.00182 13.8819 7.04956 13.8553C7.46826 13.6328 7.91361 13.4645 8.37486 13.3546C8.82607 13.2377 9.284 13.1483 9.74609 13.0872C10.2126 13.0258 10.6848 13.0208 11.1524 13.0724C11.6382 13.112 12.1138 13.233 12.5594 13.4304C12.6432 13.4692 12.7099 13.5372 12.747 13.6218C12.7841 13.7064 12.789 13.8015 12.7607 13.8894C12.7325 13.9773 12.6731 14.0519 12.5937 14.099C12.5143 14.1462 12.4204 14.1626 12.3297 14.1454L12.313 14.1418Z" fill="#9E5969"/>
<path d="M9.19981 26.5665C7.85777 25.2441 6.87012 23.213 6.37793 20.6865C7.70027 20.2435 9.27527 20.9523 10.0464 22.4091C10.87 23.9579 10.4861 25.7823 9.19981 26.5665Z" fill="#FFE1E1"/>
<path d="M24.0544 20.6998C23.5589 23.2198 22.5286 25.2476 21.1931 26.5667C19.9036 25.7857 19.5197 23.9581 20.3433 22.4093C21.1242 20.9393 22.7222 20.2306 24.0544 20.6998Z" fill="#FFE1E1"/>
<path d="M10.0091 26.1052C9.95018 26.105 9.89237 26.089 9.84177 26.0587C9.79117 26.0285 9.74966 25.9851 9.72159 25.9333C9.69353 25.8815 9.67994 25.823 9.68227 25.7641C9.68459 25.7052 9.70275 25.648 9.73481 25.5986C9.78615 25.5194 9.83292 25.4373 9.87492 25.3528C9.89348 25.3132 9.91975 25.2778 9.9522 25.2485C9.98465 25.2192 10.0226 25.1967 10.0639 25.1823C10.1051 25.1679 10.1489 25.1619 10.1925 25.1646C10.2361 25.1673 10.2788 25.1787 10.3179 25.1982C10.3571 25.2176 10.3919 25.2447 10.4205 25.2778C10.449 25.3109 10.4707 25.3493 10.4842 25.3909C10.4976 25.4325 10.5027 25.4763 10.499 25.5199C10.4953 25.5634 10.4829 25.6058 10.4626 25.6445C10.4096 25.7515 10.3504 25.8554 10.2854 25.9556C10.2555 26.0016 10.2146 26.0395 10.1663 26.0656C10.1181 26.0917 10.064 26.1054 10.0091 26.1052ZM10.4787 24.5909H10.4633C10.4202 24.5889 10.378 24.5785 10.339 24.5602C10.2999 24.5419 10.2649 24.5161 10.2359 24.4842C10.2068 24.4524 10.1844 24.4151 10.1697 24.3746C10.1551 24.3341 10.1486 24.2911 10.1505 24.248C10.1525 24.204 10.1535 24.1594 10.1535 24.1168C10.1535 24.0633 10.1535 24.0114 10.1496 23.9599C10.1474 23.9168 10.1538 23.8737 10.1683 23.8331C10.1828 23.7925 10.2051 23.7551 10.2341 23.7231C10.2925 23.6585 10.3743 23.6197 10.4613 23.6154C10.5483 23.611 10.6335 23.6414 10.6981 23.6999C10.7627 23.7584 10.8015 23.8401 10.8058 23.9271C10.8091 23.9911 10.8107 24.0547 10.8104 24.1184C10.8104 24.1716 10.8104 24.2257 10.8068 24.2798C10.8024 24.3639 10.7659 24.443 10.7049 24.5009C10.6438 24.5588 10.5628 24.591 10.4787 24.5909ZM10.1863 23.0267C10.1221 23.0268 10.0592 23.008 10.0055 22.9726C9.95186 22.9373 9.90976 22.8869 9.88444 22.8279C9.8467 22.7386 9.80438 22.6504 9.75811 22.5631C9.71758 22.4871 9.70803 22.3985 9.73146 22.3156C9.75489 22.2328 9.80948 22.1623 9.88378 22.1188C9.95713 22.0761 10.0443 22.0639 10.1266 22.0847C10.2088 22.1056 10.2797 22.1579 10.3238 22.2304C10.3304 22.2412 10.3415 22.2632 10.3468 22.2734C10.3927 22.3593 10.4429 22.4637 10.4882 22.5687C10.5095 22.6186 10.5181 22.673 10.5133 22.7271C10.5084 22.7811 10.4902 22.8332 10.4603 22.8785C10.4303 22.9237 10.3897 22.9609 10.3419 22.9866C10.294 23.0123 10.2406 23.0258 10.1863 23.0257V23.0267ZM9.25706 21.7208C9.17572 21.7208 9.09725 21.6907 9.03689 21.6361C8.9647 21.5705 8.89011 21.5089 8.81311 21.4514C8.77864 21.4255 8.7496 21.3932 8.72764 21.3561C8.70569 21.319 8.69125 21.278 8.68516 21.2353C8.67906 21.1926 8.68143 21.1492 8.69213 21.1075C8.70282 21.0657 8.72163 21.0265 8.74748 20.992C8.77334 20.9576 8.80573 20.9285 8.84281 20.9066C8.87989 20.8846 8.92092 20.8702 8.96358 20.8641C9.00624 20.858 9.04968 20.8603 9.09142 20.871C9.13316 20.8817 9.17239 20.9005 9.20686 20.9264C9.29972 20.996 9.39061 21.0701 9.47822 21.1495C9.52744 21.194 9.56202 21.2523 9.57741 21.3169C9.5928 21.3814 9.58828 21.449 9.56444 21.5109C9.5406 21.5728 9.49856 21.6261 9.44386 21.6636C9.38916 21.7011 9.32438 21.7212 9.25805 21.7211L9.25706 21.7208ZM5.98828 20.848L5.99091 20.8529L5.98828 20.848ZM7.85859 20.9661C7.83216 20.9662 7.80582 20.963 7.78017 20.9566C7.68811 20.934 7.59489 20.9164 7.50094 20.9038C7.45711 20.8995 7.41459 20.8865 7.37589 20.8655C7.3372 20.8445 7.30312 20.816 7.2757 20.7815C7.24828 20.7471 7.22807 20.7075 7.21627 20.6651C7.20448 20.6226 7.20134 20.5783 7.20704 20.5346C7.21275 20.491 7.22718 20.4489 7.24948 20.411C7.27178 20.373 7.30149 20.3399 7.33684 20.3137C7.37219 20.2874 7.41246 20.2686 7.45526 20.2582C7.49805 20.2479 7.54249 20.2462 7.58592 20.2534C7.70398 20.2687 7.82109 20.2906 7.93669 20.319C8.01451 20.3382 8.08264 20.3852 8.1282 20.4511C8.17376 20.5171 8.19361 20.5974 8.184 20.677C8.17439 20.7566 8.13599 20.8299 8.07604 20.8831C8.01609 20.9363 7.93875 20.9657 7.85859 20.9658V20.9661Z" fill="#FF8E88"/>
<path d="M20.1057 25.9557C20.0407 25.8555 19.9815 25.7516 19.9285 25.6446C19.9082 25.6059 19.8959 25.5635 19.8922 25.52C19.8885 25.4764 19.8935 25.4326 19.907 25.391C19.9205 25.3494 19.9421 25.3109 19.9707 25.2779C19.9992 25.2448 20.0341 25.2177 20.0732 25.1983C20.1124 25.1788 20.155 25.1674 20.1986 25.1647C20.2423 25.162 20.286 25.168 20.3273 25.1824C20.3685 25.1968 20.4065 25.2193 20.4389 25.2486C20.4714 25.2778 20.4977 25.3133 20.5162 25.3529C20.5583 25.4373 20.6051 25.5194 20.6563 25.5987C20.6804 25.6348 20.697 25.6754 20.7053 25.718C20.7135 25.7606 20.7133 25.8045 20.7045 25.847C20.6957 25.8895 20.6785 25.9298 20.654 25.9657C20.6295 26.0015 20.5981 26.0321 20.5617 26.0558C20.5252 26.0794 20.4845 26.0955 20.4418 26.1033C20.399 26.1111 20.3552 26.1103 20.3128 26.1009C20.2704 26.0916 20.2302 26.074 20.1947 26.0491C20.1592 26.0241 20.1289 25.9924 20.1057 25.9557ZM19.5843 24.278C19.582 24.2238 19.5811 24.1697 19.5811 24.1165C19.5811 24.0529 19.5811 23.9892 19.5853 23.9252C19.5897 23.8382 19.6284 23.7565 19.693 23.698C19.7576 23.6395 19.8428 23.6091 19.9299 23.6135C20.0169 23.6178 20.0986 23.6566 20.1571 23.7212C20.2155 23.7858 20.2459 23.871 20.2416 23.958C20.2393 24.0095 20.2376 24.0614 20.238 24.1149C20.238 24.1592 20.238 24.2038 20.2406 24.2461C20.2426 24.2892 20.2361 24.3322 20.2214 24.3727C20.2068 24.4132 20.1843 24.4505 20.1553 24.4823C20.1262 24.5142 20.0912 24.54 20.0522 24.5583C20.0132 24.5766 19.9709 24.587 19.9279 24.589H19.9125C19.8283 24.5891 19.7473 24.5569 19.6863 24.499C19.6252 24.4411 19.5887 24.362 19.5843 24.278ZM20.0765 23.0006C20.0369 22.9836 20.0009 22.9591 19.9708 22.9283C19.9406 22.8974 19.9168 22.861 19.9008 22.821C19.8847 22.781 19.8767 22.7382 19.8772 22.6951C19.8777 22.652 19.8866 22.6094 19.9036 22.5697C19.9492 22.4637 19.9991 22.3594 20.0454 22.2744C20.0503 22.2633 20.0618 22.2416 20.068 22.2314C20.1121 22.1589 20.1829 22.1066 20.2652 22.0858C20.3475 22.0649 20.4347 22.0772 20.508 22.1199C20.5824 22.1633 20.637 22.2338 20.6605 22.3166C20.684 22.3995 20.6745 22.4882 20.634 22.5642C20.5874 22.6517 20.5452 22.7399 20.5074 22.829C20.482 22.888 20.4399 22.9383 20.3863 22.9737C20.3326 23.009 20.2697 23.0279 20.2055 23.0278C20.1606 23.0278 20.1163 23.0185 20.0752 23.0006H20.0765ZM20.8909 21.6129C20.862 21.581 20.8397 21.5436 20.8252 21.503C20.8107 21.4624 20.8043 21.4193 20.8065 21.3763C20.8087 21.3332 20.8193 21.291 20.8378 21.2521C20.8563 21.2131 20.8822 21.1782 20.9142 21.1493C21.0017 21.0699 21.0922 20.9955 21.1856 20.9262C21.2201 20.9003 21.2593 20.8815 21.301 20.8708C21.3428 20.8601 21.3862 20.8577 21.4289 20.8638C21.4715 20.8699 21.5126 20.8844 21.5496 20.9063C21.5867 20.9283 21.6191 20.9573 21.645 20.9918C21.6708 21.0263 21.6896 21.0655 21.7003 21.1072C21.711 21.149 21.7134 21.1924 21.7073 21.2351C21.7012 21.2777 21.6868 21.3188 21.6648 21.3558C21.6429 21.3929 21.6138 21.4253 21.5793 21.4512C21.5023 21.5085 21.4276 21.57 21.3552 21.6359C21.3233 21.6648 21.2859 21.6872 21.2453 21.7017C21.2047 21.7161 21.1616 21.7225 21.1186 21.7203C21.0755 21.7182 21.0333 21.7075 20.9944 21.689C20.9554 21.6706 20.9205 21.6446 20.8916 21.6126L20.8909 21.6129ZM24.4019 20.853L24.4045 20.8481L24.4019 20.853ZM22.2143 20.7162C22.1936 20.6317 22.2073 20.5424 22.2524 20.468C22.2975 20.3936 22.3703 20.3402 22.4548 20.3195C22.5703 20.291 22.6873 20.2691 22.8052 20.2538C22.8486 20.2467 22.893 20.2484 22.9357 20.2588C22.9784 20.2692 23.0186 20.288 23.0539 20.3143C23.0892 20.3405 23.1189 20.3735 23.1412 20.4114C23.1634 20.4494 23.1779 20.4914 23.1836 20.535C23.1893 20.5786 23.1862 20.6229 23.1745 20.6652C23.1627 20.7076 23.1426 20.7472 23.1153 20.7816C23.0879 20.8161 23.0539 20.8447 23.0153 20.8657C22.9767 20.8868 22.9343 20.8998 22.8905 20.9042C22.7965 20.9168 22.7031 20.9344 22.611 20.957C22.5853 20.9634 22.559 20.9666 22.5325 20.9665C22.4587 20.9669 22.3869 20.9424 22.3288 20.897C22.2706 20.8516 22.2295 20.7879 22.212 20.7162H22.2143Z" fill="#FF8E88"/>
<path d="M24.6621 23.5698C24.4833 23.5347 24.2979 23.5704 24.1449 23.6693C23.9918 23.7682 23.8832 23.9226 23.8418 24.1001L24.8567 30.8348C26.0035 30.0877 26.3769 29.4541 26.3625 27.8069C26.3572 27.1054 25.6028 23.7441 24.6621 23.5698Z" fill="#FFA39C"/>
<path d="M25.8255 40.3122C25.8255 40.3122 24.1192 36.4793 23.8839 35.3749C23.6004 34.0388 25.1984 30.6945 25.1984 30.6945C25.6254 29.4186 25.6032 28.035 25.1354 26.7734C24.6987 25.5961 24.1458 24.1369 23.7606 23.0134C23.7053 22.8509 23.5966 22.712 23.4522 22.6193C23.3077 22.5265 23.1361 22.4855 22.9654 22.5029C22.7947 22.5203 22.6349 22.5951 22.5121 22.7151C22.3894 22.835 22.3109 22.9931 22.2896 23.1634C22.2896 23.1742 22.2873 23.185 22.2863 23.1962C22.2299 23.8524 22.6528 26.5283 22.8405 27.3693C23.0216 28.1798 21.7905 29.2973 21.2074 30.1583C19.342 32.9041 20.2414 34.4778 20.6303 35.3755C20.9627 36.143 21.8834 40.3141 21.8834 40.3141L25.8255 40.3122Z" fill="#FFC2B6"/>
<path d="M5.70041 23.5695C4.75967 23.7437 4.00531 27.105 3.99941 27.8065C3.9853 29.4537 4.35838 30.0873 5.50517 30.8345L6.51875 24.0997C6.47735 23.9227 6.369 23.7686 6.21642 23.6697C6.06384 23.5708 5.8789 23.5349 5.70041 23.5695Z" fill="#FFA39C"/>
<path d="M4.53711 40.3122C4.53711 40.3122 6.24336 36.4793 6.47862 35.3749C6.76213 34.0388 5.16416 30.6945 5.16416 30.6945C4.73714 29.4186 4.75937 28.035 5.22716 26.7734C5.66389 25.5961 6.21678 24.1369 6.602 23.0134C6.65725 22.8509 6.76597 22.712 6.9104 22.6193C7.05483 22.5265 7.22643 22.4855 7.39717 22.5029C7.56792 22.5203 7.72772 22.5951 7.85047 22.7151C7.97321 22.835 8.05166 22.9931 8.07298 23.1634C8.07298 23.1742 8.07528 23.185 8.07627 23.1962C8.1327 23.8524 7.70975 26.5283 7.52206 27.3693C7.34094 28.1798 8.57206 29.2973 9.15514 30.1583C11.0205 32.9041 10.1211 34.4778 9.73231 35.3755C9.39992 36.143 8.4792 40.3141 8.4792 40.3141L4.53711 40.3122Z" fill="#FFC2B6"/>
</svg>
