<svg width="24" height="42" viewBox="0 0 24 42" fill="none" xmlns="http://www.w3.org/2000/svg">
<path d="M21.1725 3.80302C20.6299 3.79464 20.1375 4.0111 19.7823 4.36548C19.4345 4.71326 19.2195 5.1939 19.2195 5.72446V4.20005C19.2195 3.14139 18.3815 2.24917 17.3229 2.23571C16.7815 2.22886 16.2922 2.44506 15.9389 2.79826C15.5911 3.14604 15.3762 3.62667 15.3762 4.15723V1.92169C15.3762 0.860572 14.5156 0 13.4536 0C12.9231 0 12.4424 0.214932 12.0946 0.562715C11.7469 0.910498 11.5319 1.39113 11.5319 1.92169V6.2804C11.5319 5.21844 10.6714 4.35786 9.60939 4.35786C9.07883 4.35786 8.5982 4.5728 8.25042 4.92058C7.90263 5.26836 7.6877 5.749 7.6877 6.2804V20.3109C7.6877 20.5089 7.46135 20.6217 7.30319 20.5024L3.30191 17.483C3.04179 17.2867 2.74749 17.1619 2.44379 17.1045L1.08008 18.2232V19.4986L9.03881 29.1329L10.3449 31.2709L10.995 37.1945L10.8516 41.1984H21.5973V32.7821C21.5973 32.6561 21.6346 32.5325 21.7048 32.4276L22.4427 31.3225C22.848 30.7158 23.0638 30.0033 23.0638 29.2739V24.9101V5.76778C23.0638 4.71106 22.2291 3.81927 21.1725 3.80302Z" fill="#FFE5C2"/>
<path d="M7.6875 17.2643C8.70157 17.2643 9.52364 16.4422 9.52364 15.4282V7.07011C9.52364 6.5387 9.73857 6.05807 10.0864 5.71029C10.3741 5.4225 10.7539 5.22627 11.1768 5.16695C10.8283 4.6776 10.2559 4.35791 9.60919 4.35791C9.07863 4.35791 8.598 4.57284 8.25022 4.92062C7.90243 5.26841 7.6875 5.74904 7.6875 6.28045V17.2643Z" fill="#FED2A4"/>
<path d="M11.5322 17.2643C12.5463 17.2643 13.3684 16.4422 13.3684 15.4281V2.65508C13.3684 2.12368 13.5833 1.64304 13.9311 1.29526C14.2103 1.01602 14.5771 0.824525 14.9847 0.759115C14.6336 0.298196 14.0783 0 13.4537 0C12.9232 0 12.4426 0.214932 12.0948 0.562715C11.7484 0.909059 11.534 1.38715 11.5322 1.91518V17.2643Z" fill="#FED2A4"/>
<path d="M12.139 37.9017V31.9943C12.139 31.3742 11.9293 30.7723 11.5441 30.2864L2.73276 19.1732C2.43321 18.7958 2.28682 18.3439 2.28682 17.8938C2.28682 17.6248 2.34098 17.3555 2.44447 17.1048C1.83047 16.9887 1.17637 17.1545 0.685412 17.5945C0.232701 17.9999 0 18.5626 0 19.1295C0 19.5797 0.146391 20.0316 0.445941 20.409L9.85216 32.2725V41.2H21.5964V39.9644H14.2016C13.0624 39.9643 12.139 39.0408 12.139 37.9017Z" fill="#FED2A4"/>
<path d="M22.4448 31.3201C22.6941 30.9459 22.8712 30.5316 22.9703 30.098L17.1959 25.152C16.3437 24.422 15.1064 24.422 14.2542 25.152L8.27051 30.2773L9.05975 31.2727L15.0799 26.116C15.4538 25.7957 15.9965 25.7957 16.3703 26.116L22.4448 31.3201Z" fill="#F6A96C"/>
<path d="M21.5968 32.7837C21.5968 32.6574 21.6342 32.5341 21.7043 32.4291L21.7345 32.384L16.1378 27.5901C15.9002 27.3866 15.5497 27.3866 15.3121 27.5901L9.84961 32.269L9.85249 32.2726V33.9661L15.424 29.167C15.5969 29.018 15.8529 29.018 16.0259 29.167L21.5968 33.9646V32.7837Z" fill="#F6A96C"/>
<path d="M9.85254 36.5615H21.5968V37.8308H9.85254V36.5615Z" fill="#F6A96C"/>
<path d="M9.85254 36.5615H12.1394V37.8308H9.85254V36.5615Z" fill="#EA9B58"/>
<path d="M9.85254 40.731V41.6481V41.6525C9.85457 41.8478 10.0241 42.0003 10.2193 42.0003H21.23C21.4253 42.0003 21.5947 41.8478 21.5968 41.6525C21.5968 41.651 21.5968 41.6496 21.5968 41.6481V40.731H9.85254Z" fill="#EA9B58"/>
<path d="M15.7245 39.9645C15.374 39.9645 15.0898 39.6804 15.0898 39.3299V39.1376C15.0898 38.7871 15.374 38.5029 15.7245 38.5029C16.075 38.5029 16.3591 38.7871 16.3591 39.1376V39.3299C16.3591 39.6805 16.075 39.9645 15.7245 39.9645Z" fill="#F6A96C"/>
<path d="M12.4774 39.9645C12.1269 39.9645 11.8428 39.6804 11.8428 39.3299V39.1376C11.8428 38.7871 12.1269 38.5029 12.4774 38.5029C12.8279 38.5029 13.1121 38.7871 13.1121 39.1376V39.3299C13.1121 39.6805 12.8279 39.9645 12.4774 39.9645Z" fill="#EA9B58"/>
<path d="M18.9716 39.9645C18.6211 39.9645 18.3369 39.6804 18.3369 39.3299V39.1376C18.3369 38.7871 18.6211 38.5029 18.9716 38.5029C19.322 38.5029 19.6062 38.7871 19.6062 39.1376V39.3299C19.6062 39.6805 19.322 39.9645 18.9716 39.9645Z" fill="#F6A96C"/>
<path d="M12.6029 35.9342C12.7661 35.8013 13.0002 35.8011 13.1636 35.9338L15.325 37.6889C15.5971 37.9099 15.9968 37.8685 16.2177 37.5962C16.4387 37.3242 16.3972 36.9245 16.1251 36.7035L13.2832 34.3959C13.05 34.2066 12.7162 34.2066 12.4831 34.3959L9.85254 36.5318V38.1741L12.6029 35.9342Z" fill="#F6A96C"/>
<path d="M12.1394 34.6748L9.85254 36.5317V38.174L12.1394 36.3116V34.6748Z" fill="#EA9B58"/>
<path d="M21.5963 36.5314L18.9664 34.3959C18.7333 34.2066 18.3994 34.2066 18.1663 34.3959L15.3245 36.7035C15.0473 36.9285 15.0094 37.3391 15.2444 37.6112C15.4715 37.8742 15.8755 37.8911 16.1452 37.6721L18.2839 35.9353C18.4485 35.8017 18.6842 35.8017 18.8488 35.9353L21.5963 38.1997V36.5314Z" fill="#F6A96C"/>
<path d="M15.7244 34.3905C15.5348 34.3905 15.3454 34.3285 15.1872 34.2042L11.8315 31.5683C11.5559 31.3518 11.5079 30.9529 11.7245 30.6772C11.941 30.4015 12.34 30.3537 12.6156 30.5702L15.7244 33.012L18.8332 30.5702C19.1088 30.3537 19.5078 30.4016 19.7243 30.6772C19.9409 30.9528 19.8929 31.3518 19.6173 31.5683L16.2615 34.2042C16.1034 34.3284 15.9138 34.3905 15.7244 34.3905Z" fill="#F6A96C"/>
<path d="M15.7245 23.3652C15.374 23.3652 15.0898 23.081 15.0898 22.7305V22.4193C15.0898 22.0688 15.374 21.7847 15.7245 21.7847C16.075 21.7847 16.3591 22.0688 16.3591 22.4193V22.7305C16.3591 23.081 16.075 23.3652 15.7245 23.3652Z" fill="#F6A96C"/>
<path d="M12.5975 25.1157C12.247 25.1157 11.9629 24.8315 11.9629 24.481V24.1698C11.9629 23.8193 12.247 23.5352 12.5975 23.5352C12.948 23.5352 13.2322 23.8193 13.2322 24.1698V24.481C13.2322 24.8315 12.948 25.1157 12.5975 25.1157Z" fill="#F6A96C"/>
<path d="M18.8514 25.1157C18.5009 25.1157 18.2168 24.8315 18.2168 24.481V24.1698C18.2168 23.8193 18.5009 23.5352 18.8514 23.5352C19.2019 23.5352 19.4861 23.8193 19.4861 24.1698V24.481C19.4861 24.8315 19.2019 25.1157 18.8514 25.1157Z" fill="#F6A96C"/>
<path d="M1.0791 21.2079L1.9841 22.3493L4.22269 21.9707C4.68733 21.8921 5.04967 21.5268 5.12439 21.0617L5.43993 19.0989L4.28192 18.2251L4.23834 18.5766L3.89056 20.7396L1.43467 21.1549L1.0791 21.2079Z" fill="#F6A96C"/>
<path d="M1.0791 21.2076L1.87824 22.2155L1.9841 22.349L4.22269 21.9704C4.42391 21.9364 4.60584 21.8484 4.75359 21.722L3.90469 20.6514L3.89056 20.7393L1.43467 21.1546L1.0791 21.2076Z" fill="#EA9B58"/>
<path d="M2.74805 23.3125L3.65093 24.4512L6.26192 24.0097C6.7264 23.9311 7.08873 23.5658 7.16362 23.1006L7.57969 20.5123C7.50015 20.5648 7.39065 20.5706 7.30248 20.504L6.38538 19.812L6.34824 20.1763L5.92988 22.7786L3.1026 23.2567L2.74805 23.3125Z" fill="#F6A96C"/>
<path d="M11.5324 7.57959L9.71243 9.21239C9.65353 9.26528 9.56451 9.26638 9.50426 9.21502L7.6875 7.66607V9.31605L9.19346 10.6248C9.31286 10.7287 9.46128 10.7805 9.60978 10.7805C9.75838 10.7805 9.90697 10.7285 10.0264 10.6246L11.5316 9.29337L11.5324 7.57959Z" fill="#F6A96C"/>
<path d="M11.5319 10.4951L9.67274 12.2295C9.63678 12.263 9.58127 12.2639 9.54429 12.2315L7.6875 10.605V12.2999L9.19338 13.6087C9.31277 13.7125 9.46119 13.7643 9.6097 13.7643C9.75829 13.7643 9.90688 13.7123 10.0264 13.6084L11.5319 12.2989V10.4951Z" fill="#F6A96C"/>
<path d="M13.4057 7.07029L11.5322 5.43478V7.12047L13.0378 8.43232C13.1572 8.53614 13.3056 8.58793 13.4541 8.58793C13.6027 8.58793 13.7513 8.53597 13.8707 8.43206L15.3802 7.09306L15.3989 5.38672L13.5016 7.06987C13.4742 7.09416 13.4332 7.09433 13.4057 7.07029Z" fill="#F6A96C"/>
<path d="M13.3324 10.02L11.5312 8.495L11.5317 10.1076L13.0221 11.4293C13.1415 11.5332 13.2899 11.5849 13.4384 11.5849C13.587 11.5849 13.7356 11.533 13.855 11.4291L15.3785 10.1119L15.3831 8.44482L13.5431 10.0193C13.4826 10.0712 13.3934 10.0715 13.3324 10.02Z" fill="#F6A96C"/>
<path d="M15.3789 17.2645C16.393 17.2645 17.215 16.4424 17.215 15.4283V4.90665C17.215 4.37524 17.43 3.89461 17.7778 3.54683C18.0556 3.26911 18.42 3.07795 18.8251 3.01153C18.4801 2.54926 17.9387 2.24378 17.323 2.236C16.7816 2.22914 16.2923 2.44534 15.939 2.79854C15.6202 3.11739 15.4135 3.54801 15.3813 4.02628C15.3798 4.05632 15.3789 17.2645 15.3789 17.2645Z" fill="#FED2A4"/>
<path d="M17.2976 8.36836L15.3779 6.59619L15.381 8.43047L16.8816 9.68841C17.001 9.79224 17.1494 9.84403 17.2979 9.84403C17.4465 9.84403 17.5952 9.79207 17.7146 9.68816L19.2219 8.40653V6.6913L17.2976 8.36836Z" fill="#F6A96C"/>
<path d="M15.3789 7.09441L15.3811 8.43011L16.8817 9.68806C16.9788 9.77242 17.0951 9.82192 17.215 9.83766V8.29168L15.3789 6.59668V7.09441Z" fill="#EA9B58"/>
<path d="M17.2439 11.4003L15.3811 9.69803L15.3799 11.3846L16.8278 12.7204C16.9472 12.8242 17.0956 12.876 17.2441 12.876C17.3927 12.876 17.5414 12.824 17.6608 12.7201L19.2225 11.3465V9.63135L17.2439 11.4003Z" fill="#F6A96C"/>
<path d="M16.8279 12.7211C16.9396 12.8182 17.0767 12.8692 17.2155 12.8755V11.3751L15.3811 9.69873L15.3799 11.3838V11.3854L16.8279 12.7211Z" fill="#EA9B58"/>
<path d="M19.2217 17.2642C20.2358 17.2642 21.0578 16.4421 21.0578 15.4281V6.34695C21.0578 5.81554 21.2728 5.33491 21.6205 4.98712C21.8782 4.72946 22.2098 4.54609 22.5798 4.46773C22.2355 4.06918 21.7354 3.8116 21.1721 3.80297C20.6296 3.79459 20.1372 4.01105 19.7819 4.36543C19.4551 4.69223 19.2458 5.13622 19.2217 5.62879V17.2642Z" fill="#FED2A4"/>
<path d="M21.1414 12.9443L19.2217 11.2949V12.9662L20.7254 14.2644C20.8448 14.3682 20.9932 14.42 21.1417 14.42C21.2903 14.42 21.4389 14.368 21.5583 14.2641L23.0635 12.9541V11.4059L21.1414 12.9443Z" fill="#F6A96C"/>
<path d="M21.0578 14.4138V12.8725L19.2217 11.2949V12.9662L20.7254 14.2644C20.8222 14.3485 20.9383 14.3979 21.0578 14.4138Z" fill="#EA9B58"/>
<path d="M21.1414 9.96065L19.2217 8.28418V10.0374L20.7254 11.2808C20.8448 11.3846 20.9932 11.4364 21.1417 11.4364C21.2903 11.4364 21.4389 11.3844 21.5583 11.2805L23.0635 9.98755V8.30567L21.1414 9.96065Z" fill="#F6A96C"/>
<path d="M21.0588 11.4302V9.8877L19.2227 8.28418V10.0374L20.7263 11.2808C20.8232 11.365 20.9392 11.4144 21.0588 11.4302Z" fill="#EA9B58"/>
<path d="M6.26201 24.0093C6.34857 23.9947 6.43158 23.97 6.50986 23.9366L5.63134 22.8286L3.10251 23.2563L2.74805 23.312L3.65093 24.4508L6.26201 24.0093Z" fill="#EA9B58"/>
<path d="M10.2159 28.6104L8.27051 30.2767L9.05966 31.2721L11.005 29.6058L10.2159 28.6104Z" fill="#EA9B58"/>
<path d="M9.85249 32.2726V33.9661L12.1393 31.9963V31.9945C12.1393 31.5105 12.011 31.0379 11.7718 30.6226L9.84961 32.2691L9.85249 32.2726Z" fill="#EA9B58"/>
<path d="M9.52462 13.7573V12.2134L7.68848 10.6045V12.2993L9.19444 13.6081C9.29065 13.6918 9.40581 13.7411 9.52462 13.7573Z" fill="#EA9B58"/>
<path d="M9.52462 10.7735V9.22818C9.51793 9.22403 9.51133 9.21972 9.50524 9.21447L7.68848 7.66553V9.31551L9.19444 10.6243C9.29065 10.7079 9.40581 10.7572 9.52462 10.7735Z" fill="#EA9B58"/>
<path d="M13.3684 8.58137V7.0375L11.5322 5.43457V7.12026L13.0378 8.4321C13.1341 8.51588 13.2495 8.56521 13.3684 8.58137Z" fill="#EA9B58"/>
<path d="M13.3688 11.5805V10.0424C13.3564 10.0365 13.3443 10.0289 13.3334 10.0196L11.5322 8.49463L11.5327 10.1072L13.023 11.429C13.1235 11.5163 13.2445 11.5667 13.3688 11.5805Z" fill="#EA9B58"/>
</svg>
