<svg width="30" height="41" viewBox="0 0 30 41" fill="none" xmlns="http://www.w3.org/2000/svg">
<path d="M14.8496 4.94971L25.9864 40.9999H28.8142C29.3025 40.9999 29.6985 40.6039 29.6985 40.1153V19.7986C29.6985 11.5978 23.0504 4.94971 14.8496 4.94971Z" fill="#FFC38F"/>
<path d="M14.8492 4.94971C6.64805 4.94971 0 11.5978 0 19.7986V40.1153C0 40.6039 0.396011 40.9999 0.884613 40.9999H25.986V19.7986C25.986 11.5978 20.9999 4.94971 14.8492 4.94971Z" fill="#FFEAB0"/>
<path d="M14.8496 0V13.6117H25.9864V8.66189C25.9864 3.87816 21.0003 0 14.8496 0Z" fill="#F9A3BF"/>
<path d="M14.8496 4.94971V32.9567H22.5521C24.6686 30.9294 25.9864 28.0754 25.9864 24.9132V13.6116C25.9864 8.82755 21.0003 4.94971 14.8496 4.94971Z" fill="#FA71A3"/>
<path d="M14.8496 36.0503C17.8382 36.0503 20.5517 34.8729 22.5521 32.9569C20.5517 31.0407 17.8382 29.8633 14.8496 29.8633V36.0503Z" fill="#F9D4DB"/>
<path d="M14.8487 0C8.69803 0 3.71191 3.87816 3.71191 8.66189V12.3743L3.81389 12.4387L23.4953 8.15295C23.2319 3.60602 19.4617 0 14.8487 0Z" fill="#F9D4DB"/>
<path d="M3.71191 13.6116V24.9132C3.71191 28.0754 5.02976 30.9294 7.1462 32.9567L21.4911 32.0605C22.7514 30.1261 23.5106 27.634 23.5106 24.9132V8.66177C23.5106 8.49097 23.5056 8.32143 23.4956 8.15314C21.4539 6.19874 18.339 4.94971 14.8487 4.94971C8.69803 4.94971 3.71191 8.82755 3.71191 13.6116Z" fill="#F9A3BF"/>
<path d="M7.14648 32.9569C9.14656 34.8729 11.8601 36.0503 14.849 36.0503C17.5169 36.0503 19.9027 34.4994 21.4914 32.0607C19.6368 30.6803 17.3383 29.8633 14.849 29.8633C11.8601 29.8633 9.14656 31.0407 7.14648 32.9569Z" fill="white"/>
</svg>
