<svg width="42" height="35" viewBox="0 0 42 35" fill="none" xmlns="http://www.w3.org/2000/svg">
<path d="M8.29293 8.37842V2.37734C8.29293 1.86907 7.88089 1.45703 7.37263 1.45703H4.30605C3.79779 1.45703 3.38574 1.86907 3.38574 2.37734V8.37842" fill="#E5E9EA"/>
<path d="M5.61429 8.37842V1.45703H4.30605C3.79779 1.45703 3.38574 1.86907 3.38574 2.37734V8.37842" fill="#D1D1D1"/>
<path d="M42 9.47223V31.9251C42 33.4645 40.752 34.7125 39.2126 34.7125H2.78742C1.24802 34.7125 0 33.4645 0 31.9251V9.47223C0 7.93283 1.24802 6.68481 2.78742 6.68481H8.2991C9.48626 6.68481 10.544 5.93307 10.9331 4.81113L11.9506 1.87458C12.3397 0.752555 13.3965 0 14.5846 0H30.8443C32.0315 0 33.0883 0.752555 33.4774 1.87458L34.4957 4.81113C34.8849 5.93316 35.9417 6.68481 37.1288 6.68481H39.2125C40.752 6.68481 42 7.93283 42 9.47223Z" fill="#FCB65F"/>
<path d="M4.97314 34.7123H2.78742C1.24802 34.7123 0 33.4642 0 31.9248V9.47199C0 7.93259 1.24802 6.68457 2.78742 6.68457H4.79998V6.68974C3.34113 6.77973 2.18572 7.99092 2.18572 9.47199V31.9248C2.18572 33.4643 3.43375 34.7123 4.97314 34.7123Z" fill="#E29A4B"/>
<path d="M16.7701 0C15.5821 0 14.5252 0.752555 14.136 1.87458L13.1186 4.81113C12.7294 5.93316 11.6717 6.68481 10.4846 6.68481H8.61426V6.66684C9.67025 6.54683 10.5788 5.83283 10.9328 4.81113L11.9502 1.87458C12.3394 0.752555 13.3962 0 14.5842 0C14.5844 0 16.7701 0 16.7701 0Z" fill="#E29A4B"/>
<path d="M42 14.2705V31.9251C42 33.4645 40.752 34.7125 39.2126 34.7125H2.78742C1.24802 34.7125 0 33.4645 0 31.9251V14.2705H42Z" fill="#53BCE9"/>
<path d="M4.97314 34.7124H2.78742C1.24802 34.7124 0 33.4644 0 31.925V14.2705H2.18572V31.9251C2.18572 33.4645 3.43375 34.7124 4.97314 34.7124Z" fill="#36A6CE"/>
<path d="M21.0001 32.0979C27.414 32.0979 32.6135 26.8984 32.6135 20.4845C32.6135 14.0706 27.414 8.87109 21.0001 8.87109C14.5862 8.87109 9.38672 14.0706 9.38672 20.4845C9.38672 26.8984 14.5862 32.0979 21.0001 32.0979Z" fill="#E5E9EA"/>
<path d="M29.2117 20.4849C29.2117 22.903 28.1669 25.0766 26.5031 26.5801C25.0469 27.8958 23.1183 28.6972 21.0003 28.6972C18.8832 28.6972 16.9537 27.8957 15.4975 26.58C13.8338 25.0775 12.7881 22.9029 12.7881 20.4848C12.7881 18.0668 13.8338 15.8922 15.4975 14.3906C16.9538 13.074 18.8832 12.2734 21.0003 12.2734C23.1183 12.2734 25.0469 13.0749 26.5031 14.3906C28.1669 15.8932 29.2117 18.0669 29.2117 20.4849Z" fill="#566368"/>
<path d="M26.8056 14.6781C28.5154 16.3879 29.3136 18.6638 29.2003 20.9033C26.9607 21.0166 24.6848 20.2184 22.9751 18.5086C21.2653 16.7989 20.467 14.523 20.581 12.2841C22.8199 12.1702 25.0958 12.9684 26.8056 14.6781Z" fill="#6F7B7F"/>
<path d="M19.0235 22.4604C20.7333 24.1702 21.5315 26.4461 21.4181 28.6856C19.1792 28.7996 16.9021 28.0014 15.1924 26.2915C13.4826 24.5818 12.6843 22.3047 12.7989 20.0664C15.0378 19.9523 17.3137 20.7506 19.0235 22.4604Z" fill="#6F7B7F"/>
<path d="M21.0001 29.3396C16.1177 29.3396 12.1455 25.3674 12.1455 20.485C12.1455 15.6026 16.1177 11.6304 21.0001 11.6304C25.8825 11.6304 29.8547 15.6025 29.8547 20.485C29.8547 25.3675 25.8825 29.3396 21.0001 29.3396ZM21.0001 12.916C16.8266 12.916 13.4312 16.3115 13.4312 20.485C13.4312 24.6585 16.8266 28.0539 21.0001 28.0539C25.1736 28.0539 28.5691 24.6585 28.5691 20.485C28.5691 16.3115 25.1736 12.916 21.0001 12.916Z" fill="#435054"/>
<path d="M21.0005 17.1885C19.1829 17.1885 17.7041 18.6673 17.7041 20.485C17.7041 22.3027 19.1829 23.7814 21.0005 23.7814C22.8182 23.7814 24.297 22.3026 24.297 20.485C24.297 18.6673 22.8182 17.1885 21.0005 17.1885Z" fill="#435054"/>
<path d="M25.1713 6.04196H30.2231C30.8872 6.04196 31.4256 5.50359 31.4256 4.83938V3.51606C31.4256 2.85193 30.8873 2.31348 30.2231 2.31348H25.1713C24.5072 2.31348 23.9688 2.85185 23.9688 3.51606V4.83938C23.9688 5.50351 24.5072 6.04196 25.1713 6.04196Z" fill="#E5E9EA"/>
<path d="M30.2234 6.68498H25.1716C24.154 6.68498 23.3262 5.85712 23.3262 4.83952V3.51636C23.3262 2.49876 24.154 1.6709 25.1716 1.6709H30.2234C31.241 1.6709 32.0688 2.49876 32.0688 3.51636V4.8396C32.0687 5.8572 31.2409 6.68498 30.2234 6.68498ZM25.1716 2.95657C24.8629 2.95657 24.6119 3.20767 24.6119 3.51627V4.83952C24.6119 5.1482 24.8629 5.39922 25.1716 5.39922H30.2234C30.532 5.39922 30.7831 5.14812 30.7831 4.83952V3.51636C30.7831 3.20767 30.532 2.95666 30.2234 2.95666C30.2234 2.95657 25.1716 2.95657 25.1716 2.95657Z" fill="#E29A4B"/>
<path d="M7.98476 32.3328C9.2686 32.3328 10.3094 31.292 10.3094 30.0082C10.3094 28.7244 9.2686 27.6836 7.98476 27.6836C6.70092 27.6836 5.66016 28.7244 5.66016 30.0082C5.66016 31.292 6.70092 32.3328 7.98476 32.3328Z" fill="#566368"/>
</svg>
