<svg width="41" height="41" viewBox="0 0 41 41" fill="none" xmlns="http://www.w3.org/2000/svg">
<path d="M30.5759 8.33874L30.1442 6.61183C30.069 6.31113 29.8955 6.04419 29.6512 5.85344C29.4069 5.66269 29.1058 5.55908 28.7959 5.55908H26.7967C26.4867 5.55908 26.1856 5.66269 25.9413 5.85344C25.697 6.04419 25.5235 6.31113 25.4483 6.61183L25.0166 8.33874V10.4235H30.5759V8.33874Z" fill="#FFDE7E"/>
<path d="M38.9149 33.356H36.1352V30.5763H40.3047V31.9661C40.3047 32.3347 40.1583 32.6882 39.8976 32.9489C39.637 33.2095 39.2835 33.356 38.9149 33.356Z" fill="#EFEFEF"/>
<path d="M15.2881 30.5762H19.4576V33.3558H16.6779C16.3093 33.3558 15.9558 33.2094 15.6952 32.9488C15.4345 32.6881 15.2881 32.3346 15.2881 31.966V30.5762Z" fill="#EFEFEF"/>
<path d="M27.7966 10.4239L21.5423 9.729L16.7178 12.4093C16.2845 12.65 15.9234 13.0023 15.672 13.4295C15.4207 13.8567 15.2881 14.3434 15.2881 14.8391V30.5765H19.4576V35.4409C19.4576 35.8095 19.604 36.163 19.8646 36.4236C20.1253 36.6843 20.4788 36.8307 20.8474 36.8307H27.7966V10.4239Z" fill="#FFAAAA"/>
<path d="M27.7969 36.8307H34.746C35.1146 36.8307 35.4681 36.6843 35.7288 36.4236C35.9894 36.163 36.1359 35.8095 36.1359 35.4409V30.5765H40.3053V14.8391C40.3053 14.3434 40.1728 13.8567 39.9214 13.4295C39.67 13.0023 39.3089 12.65 38.8756 12.4093L34.0511 9.729L27.7969 10.4239V36.8307Z" fill="#F2A2A2"/>
<path d="M34.0505 9.729L27.7962 22.2375L21.542 9.729L27.7962 10.4239L34.0505 9.729Z" fill="#E2E2E2"/>
<path d="M31.0183 8.27591L27.7969 10.4235L29.4427 12.618C29.4993 12.6934 29.5706 12.7566 29.6523 12.8035C29.734 12.8505 29.8244 12.8804 29.9181 12.8913C30.0117 12.9022 30.1065 12.894 30.1969 12.8671C30.2872 12.8403 30.3711 12.7953 30.4436 12.7349L34.0511 9.72863L32.772 8.44956C32.5448 8.22237 32.246 8.08091 31.9262 8.04925C31.6065 8.01759 31.2857 8.09768 31.0183 8.27591Z" fill="#EFEFEF"/>
<path d="M24.5748 8.27591L27.7962 10.4235L26.1504 12.618C26.0938 12.6934 26.0225 12.7566 25.9408 12.8035C25.8591 12.8505 25.7687 12.8804 25.6751 12.8913C25.5814 12.9022 25.4866 12.894 25.3962 12.8671C25.3059 12.8403 25.222 12.7953 25.1496 12.7349L21.542 9.72863L22.8211 8.44956C23.0483 8.22237 23.3471 8.08091 23.6669 8.04925C23.9866 8.01759 24.3074 8.09768 24.5748 8.27591Z" fill="#EFEFEF"/>
<path d="M25.0172 26.4069C25.401 26.4069 25.7121 26.0958 25.7121 25.712C25.7121 25.3282 25.401 25.0171 25.0172 25.0171C24.6334 25.0171 24.3223 25.3282 24.3223 25.712C24.3223 26.0958 24.6334 26.4069 25.0172 26.4069Z" fill="#D99191"/>
<path d="M25.0172 29.8815C25.401 29.8815 25.7121 29.5704 25.7121 29.1866C25.7121 28.8028 25.401 28.4917 25.0172 28.4917C24.6334 28.4917 24.3223 28.8028 24.3223 29.1866C24.3223 29.5704 24.6334 29.8815 25.0172 29.8815Z" fill="#D99191"/>
<path d="M25.0172 33.3561C25.401 33.3561 25.7121 33.045 25.7121 32.6612C25.7121 32.2774 25.401 31.9663 25.0172 31.9663C24.6334 31.9663 24.3223 32.2774 24.3223 32.6612C24.3223 33.045 24.6334 33.3561 25.0172 33.3561Z" fill="#D99191"/>
<path d="M26.4072 36.8306H29.1869V41.0001H26.4072V36.8306Z" fill="#D5D5D5"/>
<path d="M27.1016 2.08496H28.4914V5.55954H27.1016V2.08496Z" fill="#E6C871"/>
<path d="M27.7971 2.77966C28.5646 2.77966 29.1869 2.15741 29.1869 1.38983C29.1869 0.622248 28.5646 0 27.7971 0C27.0295 0 26.4072 0.622248 26.4072 1.38983C26.4072 2.15741 27.0295 2.77966 27.7971 2.77966Z" fill="#FFDE7E"/>
<path d="M12.5088 28.4917H1.39015C1.02154 28.4917 0.668031 28.3453 0.407387 28.0846C0.146743 27.824 0.000314713 27.4705 0.000314713 27.1019V24.3222C0.000314713 23.9536 0.146743 23.6001 0.407387 23.3394C0.668031 23.0788 1.02154 22.9324 1.39015 22.9324H12.5088V28.4917Z" fill="#E2E2E2"/>
<path d="M14.5928 30.5762H15.9826V34.7457H14.5928V30.5762Z" fill="#D5D5D5"/>
<path d="M1.38981 40.3052H17.3729C18.1404 40.3052 18.7627 39.6829 18.7627 38.9153V37.5255C18.7627 36.7579 18.1404 36.1357 17.3729 36.1357H1.38981C0.622231 36.1357 -1.71661e-05 36.7579 -1.71661e-05 37.5255V38.9153C-1.71661e-05 39.6829 0.622231 40.3052 1.38981 40.3052Z" fill="#EFEFEF"/>
<path d="M15.2877 31.271C14.5505 31.271 13.8435 30.9781 13.3222 30.4569C12.8009 29.9356 12.5081 29.2285 12.5081 28.4913V22.2371C12.5081 21.8685 12.6545 21.515 12.9151 21.2543C13.1758 20.9937 13.5293 20.8473 13.8979 20.8473H16.6776C17.0462 20.8473 17.3997 20.9937 17.6603 21.2543C17.921 21.515 18.0674 21.8685 18.0674 22.2371V28.4913C18.0674 29.2285 17.7745 29.9356 17.2532 30.4569C16.732 30.9781 16.0249 31.271 15.2877 31.271Z" fill="#EFEFEF"/>
<path d="M8.33887 36.1357H2.08463V28.4917H8.33887V36.1357Z" fill="#D5D5D5"/>
<path d="M6.25391 19.4575H7.64374V22.9321H6.25391V19.4575Z" fill="#FFAAAA"/>
<path d="M2.08496 19.4575H3.47479V22.9321H2.08496V19.4575Z" fill="#FFAAAA"/>
</svg>
